<?xml version="1.0" encoding="iso-8859-1"?>
<!-- Generator: Adobe Illustrator 19.0.0, SVG Export Plug-In . SVG Version: 6.00 Build 0)  -->
<svg version="1.1" id="Capa_1" xmlns="http://www.w3.org/2000/svg" xmlns:xlink="http://www.w3.org/1999/xlink" x="0px" y="0px"
	 viewBox="0 0 512.001 512.001" fill="#fff" style="enable-background:new 0 0 512.001 512.001;" xml:space="preserve">
<g>
	<g>
		<path d="M502.571,268.418c-6.756-6.848-6.756-17.988,0-24.835c7.371-7.47,10.656-17.699,9.015-28.064
			c-1.642-10.365-7.928-19.077-17.245-23.904c-8.541-4.424-11.983-15.019-7.675-23.618c4.702-9.382,4.666-20.125-0.099-29.476
			c-4.764-9.351-13.435-15.694-23.788-17.405c-9.49-1.568-16.037-10.581-14.597-20.09c1.572-10.376-1.781-20.582-9.202-28.003
			c-7.421-7.421-17.623-10.776-28.004-9.203c-9.499,1.441-18.522-5.107-20.09-14.598c-1.711-10.354-8.056-19.024-17.406-23.789
			c-9.351-4.764-20.094-4.8-29.476-0.098c-8.6,4.311-19.193,0.866-23.618-7.674c-4.826-9.319-13.54-15.604-23.904-17.245
			c-10.357-1.641-20.593,1.644-28.063,9.015c-6.848,6.756-17.985,6.756-24.833,0c-7.471-7.371-17.705-10.658-28.063-9.015
			c-10.365,1.642-19.078,7.928-23.904,17.245c-4.425,8.541-15.018,11.985-23.619,7.675c-9.382-4.702-20.124-4.665-29.475,0.098
			c-9.352,4.764-15.696,13.436-17.406,23.79c-1.568,9.49-10.585,16.037-20.09,14.596c-10.371-1.572-20.583,1.782-28.004,9.203
			c-7.421,7.421-10.774,17.627-9.202,28.002c1.44,9.51-5.107,18.522-14.598,20.091c-10.354,1.711-19.024,8.055-23.788,17.405
			c-4.765,9.351-4.801,20.093-0.099,29.476c4.309,8.6,0.866,19.194-7.674,23.618c-9.319,4.827-15.604,13.539-17.246,23.904
			c-1.642,10.365,1.644,20.594,9.015,28.064c6.756,6.847,6.756,17.987,0,24.834c-7.371,7.47-10.656,17.699-9.015,28.064
			c1.642,10.365,7.928,19.077,17.245,23.904c8.541,4.424,11.983,15.019,7.675,23.618c-4.702,9.382-4.666,20.125,0.099,29.476
			c4.764,9.351,13.435,15.695,23.788,17.405c9.49,1.568,16.037,10.581,14.598,20.09c-1.572,10.376,1.781,20.582,9.202,28.003
			c7.421,7.421,17.623,10.775,28.004,9.203c9.499-1.44,18.521,5.107,20.09,14.598c1.711,10.354,8.056,19.024,17.405,23.788
			c9.351,4.764,20.095,4.799,29.477,0.099c8.601-4.31,19.193-0.867,23.618,7.674c4.826,9.318,13.539,15.603,23.903,17.245
			c10.362,1.644,20.595-1.644,28.064-9.015c6.848-6.756,17.985-6.756,24.833,0c6.208,6.125,14.32,9.429,22.832,9.429
			c1.731,0,3.48-0.137,5.232-0.414c10.365-1.642,19.077-7.928,23.903-17.245c4.424-8.541,15.019-11.985,23.619-7.674
			c9.384,4.702,20.126,4.665,29.475-0.099c9.352-4.764,15.695-13.435,17.406-23.789c1.568-9.49,10.588-16.035,20.09-14.596
			c10.376,1.573,20.583-1.782,28.004-9.203c7.421-7.421,10.774-17.627,9.202-28.002c-1.44-9.51,5.107-18.522,14.597-20.091
			c10.354-1.711,19.024-8.055,23.788-17.405c4.765-9.351,4.801-20.093,0.099-29.476c-4.309-8.6-0.866-19.194,7.674-23.618
			c9.319-4.827,15.604-13.54,17.246-23.904C513.228,286.117,509.942,275.887,502.571,268.418z M491.893,278.951
			c3.988,4.042,5.766,9.575,4.877,15.182c-0.888,5.607-4.289,10.321-9.331,12.933c-15.786,8.178-22.148,27.762-14.185,43.656
			c2.544,5.076,2.524,10.888-0.054,15.946c-2.577,5.059-7.268,8.491-12.869,9.417c-17.541,2.899-29.645,19.558-26.981,37.137
			c0.851,5.613-0.964,11.135-4.979,15.148c-4.015,4.015-9.534,5.831-15.149,4.979c-17.581-2.663-34.239,9.44-37.137,26.981
			c-0.926,5.602-4.358,10.293-9.417,12.87c-5.06,2.578-10.871,2.597-15.946,0.053c-15.893-7.965-35.479-1.603-43.656,14.185
			c-2.611,5.042-7.325,8.442-12.933,9.33c-5.607,0.889-11.142-0.889-15.183-4.876c-6.328-6.245-14.639-9.367-22.951-9.367
			c-8.312,0-16.624,3.123-22.951,9.366c-4.042,3.989-9.584,5.767-15.183,4.877c-5.607-0.888-10.321-4.289-12.933-9.33
			c-8.178-15.787-27.763-22.149-43.658-14.185c-5.075,2.543-10.888,2.524-15.944-0.053c-5.06-2.577-8.492-7.269-9.418-12.87
			c-2.898-17.542-19.558-29.646-37.137-26.982c-5.613,0.851-11.136-0.965-15.15-4.979c-4.015-4.014-5.829-9.536-4.979-15.149
			c2.664-17.578-9.44-34.238-26.981-37.137c-5.602-0.926-10.292-4.358-12.869-9.417c-2.578-5.059-2.598-10.871-0.054-15.946
			c7.965-15.894,1.602-35.479-14.185-43.656c-5.041-2.611-8.442-7.325-9.33-12.932c-0.889-5.608,0.889-11.142,4.877-15.183
			c12.487-12.656,12.487-33.248,0-45.903c-3.988-4.042-5.766-9.575-4.877-15.182c0.888-5.607,4.289-10.321,9.331-12.933
			c15.785-8.178,22.148-27.762,14.185-43.657c-2.544-5.076-2.524-10.888,0.054-15.946c2.577-5.059,7.268-8.491,12.869-9.417
			c17.541-2.899,29.645-19.558,26.981-37.137c-0.851-5.613,0.964-11.135,4.979-15.148c4.016-4.015,9.539-5.829,15.15-4.979
			c17.577,2.662,34.239-9.44,37.137-26.981c0.926-5.602,4.358-10.293,9.418-12.87c5.059-2.578,10.872-2.596,15.945-0.053
			c15.894,7.965,35.479,1.604,43.657-14.186c2.611-5.041,7.325-8.442,12.933-9.33c5.604-0.888,11.141,0.889,15.183,4.877
			c12.656,12.488,33.247,12.488,45.902,0c4.041-3.988,9.573-5.766,15.183-4.877c5.607,0.888,10.321,4.289,12.933,9.33
			c8.179,15.787,27.764,22.149,43.658,14.185c5.075-2.544,10.888-2.523,15.944,0.053c5.06,2.577,8.492,7.269,9.418,12.87
			c2.898,17.542,19.557,29.646,37.137,26.982c5.614-0.851,11.136,0.965,15.15,4.979c4.015,4.014,5.829,9.536,4.979,15.15
			c-2.664,17.578,9.44,34.238,26.981,37.137c5.602,0.926,10.292,4.358,12.869,9.417c2.578,5.059,2.598,10.871,0.054,15.946
			c-7.965,15.894-1.602,35.479,14.186,43.657c5.041,2.611,8.442,7.325,9.33,12.932c0.889,5.608-0.889,11.142-4.877,15.182
			C479.407,245.704,479.407,266.296,491.893,278.951z"/>
	</g>
</g>
<g>
	<g>
		<path d="M328.143,128.262h-52.221c-14.851,0-28.812,5.783-39.312,16.283L121.067,260.088c-15.424,15.425-15.424,40.525,0,55.95
			l74.894,74.893c7.473,7.473,17.407,11.588,27.976,11.588c10.569,0,20.503-4.116,27.976-11.588l115.543-115.542
			c10.5-10.501,16.282-24.461,16.282-39.312v-52.221C383.738,153.202,358.798,128.262,328.143,128.262z M368.739,236.078
			L368.739,236.078c-0.001,10.844-4.224,21.038-11.892,28.705L241.305,380.326c-4.639,4.64-10.808,7.195-17.368,7.195
			c-6.561,0-12.73-2.555-17.368-7.195l-74.893-74.893c-9.578-9.578-9.578-25.161,0-34.739l115.543-115.542
			c7.667-7.668,17.861-11.891,28.705-11.891h52.221c22.384,0,40.596,18.211,40.596,40.596V236.078z"/>
	</g>
</g>
<g>
	<g>
		<path d="M328.143,160.325c-12.976,0-23.531,10.557-23.531,23.531s10.557,23.531,23.531,23.531
			c12.975,0,23.531-10.557,23.531-23.531S341.118,160.325,328.143,160.325z M328.143,192.389c-4.705,0-8.532-3.828-8.532-8.532
			c0-4.704,3.827-8.532,8.532-8.532c4.705,0,8.532,3.828,8.532,8.532C336.675,188.561,332.848,192.389,328.143,192.389z"/>
	</g>
</g>
<g>
	<g>
		<path d="M390.742,97.748c-39.659-33.835-90.268-51.405-142.543-49.471c-52.556,1.944-101.992,23.507-139.203,60.718
			c-37.211,37.211-58.774,86.648-60.718,139.203c-1.933,52.261,15.637,102.885,49.471,142.543c1.484,1.739,3.59,2.632,5.71,2.632
			c1.721,0,3.451-0.59,4.864-1.795c3.15-2.688,3.526-7.422,0.838-10.573c-31.389-36.791-47.687-83.759-45.894-132.254
			c1.804-48.759,21.81-94.626,56.336-129.152c34.525-34.525,80.391-54.532,129.152-56.335
			c48.494-1.791,95.463,14.506,132.253,45.893c3.152,2.689,7.887,2.313,10.574-0.838C394.268,105.17,393.893,100.436,390.742,97.748
			z"/>
	</g>
</g>
<g>
	<g>
		<path d="M414.252,121.258c-2.689-3.15-7.42-3.527-10.575-0.837c-3.15,2.688-3.526,7.422-0.838,10.573
			c31.389,36.791,47.686,83.758,45.894,132.254c-1.804,48.759-21.81,94.626-56.336,129.152
			c-34.524,34.525-80.391,54.532-129.151,56.335c-48.501,1.788-95.463-14.506-132.253-45.893c-3.152-2.689-7.886-2.313-10.574,0.838
			s-2.313,7.885,0.838,10.573c37.687,32.152,85.27,49.615,134.756,49.615c2.59,0,5.188-0.048,7.787-0.144
			c52.556-1.944,101.992-23.507,139.203-60.718c37.211-37.211,58.774-86.648,60.718-139.203
			C465.656,211.54,448.087,160.916,414.252,121.258z"/>
	</g>
</g>
<g>
</g>
<g>
</g>
<g>
</g>
<g>
</g>
<g>
</g>
<g>
</g>
<g>
</g>
<g>
</g>
<g>
</g>
<g>
</g>
<g>
</g>
<g>
</g>
<g>
</g>
<g>
</g>
<g>
</g>
</svg>
