<?xml version="1.0" encoding="iso-8859-1"?>
<!-- Generator: Adobe Illustrator 19.0.0, SVG Export Plug-In . SVG Version: 6.00 Build 0)  -->
<svg version="1.1" id="Capa_1" xmlns="http://www.w3.org/2000/svg" xmlns:xlink="http://www.w3.org/1999/xlink" x="0px" y="0px"
	 viewBox="0 0 512 512" fill="#fff" style="enable-background:new 0 0 512 512;" xml:space="preserve">
<g>
	<g>
		<path d="M111.71,396.801c-8.556,0-15.517,6.96-15.517,15.516c0,8.556,6.961,15.516,15.517,15.516
			c8.556,0,15.516-6.96,15.516-15.516C127.226,403.761,120.266,396.801,111.71,396.801z"/>
	</g>
</g>
<g>
	<g>
		<path d="M432.354,396.801c-8.556,0-15.516,6.96-15.516,15.516c0,8.556,6.96,15.516,15.516,15.516
			c8.556,0,15.517-6.96,15.517-15.516C447.871,403.761,440.91,396.801,432.354,396.801z"/>
	</g>
</g>
<g>
	<g>
		<path d="M495.909,297.338l-57.745-19.248l-26.987-74.218c-3.369-9.266-12.257-15.491-22.116-15.491h-69.447v-16.548
			c0-8.556-6.961-15.516-15.517-15.516H188.231c13.889-8.211,30.794-18.796,43.611-28.694c11.277,4.339,19.452,10.343,19.658,10.496
			c3.309,2.483,8.007,1.816,10.494-1.491c2.489-3.311,1.824-8.012-1.486-10.502c-0.588-0.442-6.782-5.022-16.105-9.439
			c1.406-1.455,2.636-2.861,3.647-4.203c12.507-16.6,9.177-40.28-7.424-52.787c-8.041-6.059-17.961-8.623-27.931-7.221
			c-9.971,1.402-18.798,6.604-24.855,14.645c-9.746,12.936-20.881,45.927-28.033,69.498c-7.152-23.571-18.288-56.562-28.033-69.498
			c-12.509-16.6-36.189-19.929-52.786-7.424c-16.6,12.506-19.931,36.186-7.425,52.787c1.011,1.341,2.24,2.748,3.646,4.202
			c-9.322,4.418-15.515,8.998-16.103,9.44c-3.311,2.49-3.976,7.191-1.486,10.502c2.491,3.31,7.191,3.976,10.502,1.485
			c0.151-0.113,8.311-6.159,19.616-10.517c12.821,9.906,29.745,20.503,43.646,28.721H15.517C6.961,156.317,0,163.278,0,171.833
			v56.113c0,4.142,3.357,7.5,7.5,7.5h0.517v152.823c0,8.556,6.96,15.516,15.516,15.516H64.91c-0.504,2.77-0.781,5.619-0.781,8.532
			c0,26.236,21.345,47.581,47.581,47.581c26.235,0,47.58-21.345,47.58-47.581c0-2.914-0.277-5.762-0.781-8.532h227.047
			c-0.504,2.77-0.781,5.619-0.781,8.532c0,26.236,21.345,47.581,47.58,47.581c26.236,0,47.581-21.345,47.581-47.581
			c0-3.706-0.44-7.31-1.245-10.774l15.87-7.935C505.317,388.229,512,377.417,512,365.39v-45.727
			C512,309.518,505.533,300.546,495.909,297.338z M406.697,235.447l14.95,41.113h-16.103l-14.95-41.113H406.697z M319.614,203.383
			h69.447v-0.001c3.575,0,6.798,2.257,8.019,5.617l4.163,11.448h-81.629V203.383z M312.114,235.446h62.519l14.95,41.113h-77.985
			v-41.113H312.114z M199.82,76.147c3.647-4.842,8.962-7.973,14.964-8.817c1.073-0.151,2.144-0.226,3.208-0.226
			c4.893,0,9.632,1.577,13.608,4.573c4.841,3.647,7.972,8.962,8.816,14.964s-0.7,11.974-4.348,16.815
			c-1.644,2.182-4.147,4.678-7.276,7.378c-10.649-2.915-22.876-3.99-34.886-0.063c-4.173,1.364-8.097,3.25-11.77,5.653
			C188.029,99.33,194.496,83.215,199.82,76.147z M198.516,125.047c4.539-1.492,9.216-1.98,13.824-1.787
			c-11.797,8.13-25.703,16.618-37.443,23.452C181.131,135.439,189.029,128.166,198.516,125.047z M151.274,171.317h17.064V356.72
			h-17.064V171.317z M83.543,103.458c-7.529-9.994-5.523-24.251,4.47-31.78c4.082-3.075,8.873-4.56,13.628-4.56
			c6.888,0,13.698,3.117,18.152,9.029c5.325,7.068,11.792,23.182,17.683,40.278c-3.673-2.403-7.598-4.289-11.77-5.653
			c-12.012-3.929-24.241-2.854-34.89,0.062C87.689,108.135,85.187,105.64,83.543,103.458z M107.247,123.242
			c4.591-0.185,9.258,0.302,13.798,1.787c9.511,3.11,17.427,10.39,23.674,21.685C132.969,139.875,119.051,131.379,107.247,123.242z
			 M15,171.833c0-0.285,0.231-0.516,0.517-0.516h120.758v49.129H15V171.833z M136.274,235.446V356.72H23.017V235.446H136.274z
			 M70.381,388.785H23.532c-0.284,0-0.516-0.231-0.516-0.516v-16.548h63.906C80.074,375.918,74.373,381.802,70.381,388.785z
			 M111.71,444.898c-17.965,0-32.581-14.616-32.581-32.581c0-17.965,14.616-32.581,32.581-32.581
			c17.965,0,32.58,14.616,32.58,32.581C144.29,430.282,129.675,444.898,111.71,444.898z M296.597,388.785h-143.56
			c-3.992-6.983-9.692-12.868-16.54-17.064h160.1V388.785z M296.597,356.72H183.339V235.446h113.258V356.72z M304.613,220.446
			h-0.517H183.339v-49.129h120.758c0.285,0,0.516,0.232,0.516,0.516V220.446z M432.354,444.898c-17.965,0-32.58-14.616-32.58-32.581
			c0-17.965,14.615-32.581,32.58-32.581s32.581,14.616,32.581,32.581C464.935,430.282,450.319,444.898,432.354,444.898z
			 M497,332.672h-8.532c-4.143,0-7.5,3.358-7.5,7.5c0,4.142,3.357,7.5,7.5,7.5H497v17.718c0,6.309-3.505,11.98-9.148,14.802
			l-14.846,7.423c-8.361-13.707-23.455-22.878-40.651-22.878c-17.678,0-33.125,9.699-41.327,24.048h-79.43v-41.113h144.807
			c4.143,0,7.5-3.358,7.5-7.5c0-4.142-3.357-7.5-7.5-7.5H311.597V291.56h119.54l60.029,20.009c3.489,1.163,5.834,4.416,5.834,8.094
			V332.672z"/>
	</g>
</g>
<g>
</g>
<g>
</g>
<g>
</g>
<g>
</g>
<g>
</g>
<g>
</g>
<g>
</g>
<g>
</g>
<g>
</g>
<g>
</g>
<g>
</g>
<g>
</g>
<g>
</g>
<g>
</g>
<g>
</g>
</svg>
